<svg xmlns="http://www.w3.org/2000/svg" width="173" height="40" viewBox="0 0 173 40">
  <defs>
    <clipPath id="clip-TestEngine-logo-white-bg">
      <rect width="200" height="40"/>
    </clipPath>
  </defs>
  <g id="TestEngine-logo-white-bg" clip-path="url(#clip-TestEngine-logo-white-bg)">
    <g id="Group_4577" data-name="Group 4577" transform="translate(48 4.986)">
      <g id="Group_11" data-name="Group 11">
        <g id="Group_10" data-name="Group 10">
          <path id="Path_34" data-name="Path 34" d="M125.959,5.816s-1.465-.167-2.072-.167c-.879,0-1.329.314-1.329.931,0,.67.377.826,1.6,1.161,1.507.418,2.051.816,2.051,2.04a2.1,2.1,0,0,1-2.4,2.249,15.244,15.244,0,0,1-2.344-.283l.115-.931s1.412.189,2.155.189c.889,0,1.3-.4,1.3-1.151,0-.607-.324-.816-1.423-1.078-1.548-.4-2.218-.868-2.218-2.113,0-1.444.952-2.04,2.386-2.04a15.873,15.873,0,0,1,2.27.251Z" transform="translate(-121.397 -4.624)" fill="#173647"/>
          <path id="Path_35" data-name="Path 35" d="M144.193,5h2.02l1.6,5.6,1.6-5.6h2.03v7.167h-1.172V5.973h-.062l-1.79,5.9h-1.214l-1.79-5.9h-.062v6.194h-1.161V5Z" transform="translate(-136.594 -4.875)" fill="#173647"/>
          <path id="Path_36" data-name="Path 36" d="M219.91,5h5.231V6.036h-2.019v6.131H221.95V6.036h-2.04Z" transform="translate(-187.073 -4.875)" fill="#173647"/>
          <path id="Path_37" data-name="Path 37" d="M245.325,5c1.423,0,2.187.534,2.187,1.862a1.574,1.574,0,0,1-.847,1.611,1.547,1.547,0,0,1,1.025,1.664c0,1.465-.889,2.03-2.281,2.03h-2.8V5Zm-1.559,1V8.055H245.3c.712,0,1.025-.356,1.025-1.057S245.974,6,245.262,6Zm0,3.035v2.124h1.58c.722,0,1.151-.23,1.151-1.088,0-.816-.607-1.036-1.172-1.036Z" transform="translate(-202.203 -4.875)" fill="#173647"/>
          <path id="Path_38" data-name="Path 38" d="M266.5,5h4.52V6.015h-3.359v2.03h2.731v.994h-2.731v2.1h3.359v1.025H266.5Z" transform="translate(-218.131 -4.875)" fill="#173647"/>
          <path id="Path_39" data-name="Path 39" d="M289.015,5h2.312l1.779,7.167h-1.172l-.529-2.1h-2.468l-.529,2.1h-1.161Zm.154,4.039h2.011l-.742-3.066h-.523Z" transform="translate(-231.964 -4.875)" fill="#173647"/>
          <path id="Path_40" data-name="Path 40" d="M313.74,10.043v2.124h-1.161V5H315.3a2.223,2.223,0,0,1,2.427,2.5,2.418,2.418,0,0,1-1.172,2.286l1.182,2.386h-1.277l-1.036-2.124ZM315.3,6h-1.559V9.039h1.58c.879,0,1.213-.79,1.213-1.533C316.534,6.69,316.137,6,315.3,6Z" transform="translate(-248.852 -4.875)" fill="#173647"/>
          <path id="Path_41" data-name="Path 41" d="M175.313,5h2.312l1.779,7.167h-1.172l-.529-2.1h-2.468l-.529,2.1h-1.161Zm.154,4.039h2.011l-.742-3.066h-.523Z" transform="translate(-156.163 -4.875)" fill="#173647"/>
          <path id="Path_42" data-name="Path 42" d="M200.038,10.043v2.124h-1.161V5H201.6a2.223,2.223,0,0,1,2.427,2.5,2.418,2.418,0,0,1-1.172,2.286l1.182,2.386h-1.277l-1.036-2.124ZM201.6,6h-1.559V9.039h1.58c.879,0,1.213-.79,1.213-1.533C202.832,6.69,202.435,6,201.6,6Z" transform="translate(-173.051 -4.875)" fill="#173647"/>
        </g>
      </g>
    </g>
    <g id="Group_4575" data-name="Group 4575" transform="translate(178.366 28.971)">
      <g id="Group_3279" data-name="Group 3279" transform="translate(0 0)">
        <g id="Group_3278" data-name="Group 3278">
          <g id="Group_3277" data-name="Group 3277">
            <path id="Path_3794" data-name="Path 3794" d="M1.7,5H1.121V1.931H.071v-.5H2.754v.5H1.7Zm3.39,0L4.059,2.019h-.02q.042.664.042,1.245V5h-.53V1.431h.823L5.365,4.27h.015L6.4,1.431h.825V5H6.664V3.235q0-.266.013-.693T6.7,2.024h-.02L5.609,5Z" transform="translate(-15)" fill="#173647"/>
          </g>
        </g>
      </g>
    </g>
    <path id="Path_3799" data-name="Path 3799" d="M7.152,0H5.284V-14.4H.2v-1.659H12.239V-14.4H7.152ZM19.468.22a5.532,5.532,0,0,1-4.213-1.626,6.3,6.3,0,0,1-1.544-4.515,6.981,6.981,0,0,1,1.434-4.625A4.762,4.762,0,0,1,19-12.261a4.541,4.541,0,0,1,3.582,1.489A5.706,5.706,0,0,1,23.9-6.844v1.154H15.6a4.773,4.773,0,0,0,1.071,3.219,3.7,3.7,0,0,0,2.862,1.1,9.7,9.7,0,0,0,3.845-.813V-.56a9.651,9.651,0,0,1-1.829.6A10.28,10.28,0,0,1,19.468.22Zm-.494-10.953a2.978,2.978,0,0,0-2.313.945,4.355,4.355,0,0,0-1.016,2.615h6.3a4.01,4.01,0,0,0-.769-2.642A2.707,2.707,0,0,0,18.973-10.734Zm15.8,7.449A3.016,3.016,0,0,1,33.519-.692,5.887,5.887,0,0,1,30,.22a7.645,7.645,0,0,1-3.735-.758V-2.23a9.033,9.033,0,0,0,1.862.692,7.776,7.776,0,0,0,1.917.253,4.348,4.348,0,0,0,2.2-.456,1.508,1.508,0,0,0,.769-1.39,1.508,1.508,0,0,0-.61-1.2,9.591,9.591,0,0,0-2.379-1.181,12.9,12.9,0,0,1-2.39-1.093,3.264,3.264,0,0,1-1.055-1.06,2.765,2.765,0,0,1-.346-1.417,2.7,2.7,0,0,1,1.2-2.324,5.58,5.58,0,0,1,3.285-.851,9.611,9.611,0,0,1,3.8.791l-.648,1.483a8.726,8.726,0,0,0-3.285-.747,3.779,3.779,0,0,0-1.956.406,1.257,1.257,0,0,0-.659,1.121,1.365,1.365,0,0,0,.247.824,2.439,2.439,0,0,0,.8.648,17.8,17.8,0,0,0,2.109.89,7.88,7.88,0,0,1,2.895,1.571A2.771,2.771,0,0,1,34.772-3.285Zm6.855,2a5.957,5.957,0,0,0,.934-.071,6.045,6.045,0,0,0,.714-.148v1.4A3.334,3.334,0,0,1,42.4.126,6.559,6.559,0,0,1,41.364.22q-3.494,0-3.494-3.68v-7.163H36.145V-11.5l1.725-.758.769-2.571h1.055v2.791h3.494v1.417H39.694v7.086a2.438,2.438,0,0,0,.516,1.67A1.8,1.8,0,0,0,41.627-1.285ZM54.91,0H45.956V-16.062H54.91V-14.4H47.823v5.175h6.658v1.648H47.823V-1.67H54.91ZM66.434,0V-7.789a3.143,3.143,0,0,0-.67-2.2,2.73,2.73,0,0,0-2.1-.725A3.461,3.461,0,0,0,60.9-9.69a5.158,5.158,0,0,0-.879,3.373V0H58.195V-12.041h1.483l.3,1.648h.088a3.724,3.724,0,0,1,1.571-1.379,5.1,5.1,0,0,1,2.252-.489,4.574,4.574,0,0,1,3.274,1.049,4.465,4.465,0,0,1,1.1,3.356V0ZM81.859-12.041v1.154l-2.23.264a3.834,3.834,0,0,1,.549,1.005,3.835,3.835,0,0,1,.242,1.4,3.559,3.559,0,0,1-1.208,2.823A4.875,4.875,0,0,1,75.894-4.34a5.525,5.525,0,0,1-1.011-.088,1.8,1.8,0,0,0-1.165,1.549.787.787,0,0,0,.406.731,2.969,2.969,0,0,0,1.4.236h2.131a4.773,4.773,0,0,1,3,.824,2.863,2.863,0,0,1,1.049,2.4,3.419,3.419,0,0,1-1.6,3.049,8.585,8.585,0,0,1-4.68,1.049,6.394,6.394,0,0,1-3.642-.879A2.838,2.838,0,0,1,70.5,2.043a2.789,2.789,0,0,1,.7-1.9A3.58,3.58,0,0,1,73.18-.945a1.908,1.908,0,0,1-.775-.648,1.715,1.715,0,0,1-.313-1.022,1.939,1.939,0,0,1,.352-1.154,3.7,3.7,0,0,1,1.11-.956,3.252,3.252,0,0,1-1.522-1.307,3.842,3.842,0,0,1-.588-2.109,3.9,3.9,0,0,1,1.187-3.049,4.844,4.844,0,0,1,3.362-1.071,6.113,6.113,0,0,1,1.7.22Zm-9.6,14.063A1.634,1.634,0,0,0,73.081,3.5a4.548,4.548,0,0,0,2.362.505,6.591,6.591,0,0,0,3.4-.687,2.1,2.1,0,0,0,1.1-1.862A1.474,1.474,0,0,0,79.343.1a4.693,4.693,0,0,0-2.274-.379H74.883a2.88,2.88,0,0,0-1.934.593A2.12,2.12,0,0,0,72.257,2.021Zm.989-10.206a2.451,2.451,0,0,0,.714,1.912,2.851,2.851,0,0,0,1.989.648q2.67,0,2.67-2.593a2.394,2.394,0,0,0-2.7-2.714,2.676,2.676,0,0,0-1.978.692A2.787,2.787,0,0,0,73.246-8.185ZM86.155,0H84.331V-12.041h1.824ZM84.177-15.3a1.211,1.211,0,0,1,.308-.917,1.075,1.075,0,0,1,.769-.291,1.075,1.075,0,0,1,.758.3,1.189,1.189,0,0,1,.319.912,1.208,1.208,0,0,1-.319.917,1.064,1.064,0,0,1-.758.3,1.053,1.053,0,0,1-.769-.3A1.234,1.234,0,0,1,84.177-15.3ZM98.262,0V-7.789a3.143,3.143,0,0,0-.67-2.2,2.73,2.73,0,0,0-2.1-.725A3.461,3.461,0,0,0,92.725-9.69a5.158,5.158,0,0,0-.879,3.373V0H90.022V-12.041h1.483l.3,1.648h.088a3.724,3.724,0,0,1,1.571-1.379,5.1,5.1,0,0,1,2.252-.489,4.574,4.574,0,0,1,3.274,1.049,4.465,4.465,0,0,1,1.1,3.356V0Zm10.657.22a5.532,5.532,0,0,1-4.213-1.626,6.3,6.3,0,0,1-1.544-4.515,6.981,6.981,0,0,1,1.434-4.625,4.762,4.762,0,0,1,3.851-1.714,4.541,4.541,0,0,1,3.582,1.489,5.706,5.706,0,0,1,1.318,3.928v1.154h-8.295a4.773,4.773,0,0,0,1.071,3.219,3.7,3.7,0,0,0,2.862,1.1,9.7,9.7,0,0,0,3.845-.813V-.56a9.651,9.651,0,0,1-1.829.6A10.28,10.28,0,0,1,108.918.22Zm-.494-10.953a2.978,2.978,0,0,0-2.313.945A4.355,4.355,0,0,0,105.1-7.174h6.3a4.01,4.01,0,0,0-.769-2.642A2.707,2.707,0,0,0,108.424-10.734Z" transform="translate(47 34)" fill="#173647"/>
    <rect id="Rectangle_10644" data-name="Rectangle 10644" width="34.17" height="34.175" transform="translate(0.882 2.882)" fill="#fcdc00"/>
    <path id="Path_3800" data-name="Path 3800" d="M36.554,5V37.217H4.34V5H36.554M38.447,3.11h-36v36h36v-36Z" transform="translate(-2.447 -1.11)" fill="#173647"/>
    <g id="Group_4576" data-name="Group 4576" transform="translate(-19.675 -9.775)">
      <g id="Group_4558" data-name="Group 4558" transform="translate(24.675 16.775)">
        <g id="Group_3746" data-name="Group 3746" transform="translate(0 0)">
          <path id="Path_2865" data-name="Path 2865" d="M29.445,39.26l-2.189-1.486H25.593l-2.206,1.475-4.028-1.7-.471-2.65-1.16-1.179L15.1,33.252l-1.667-4.032,1.534-2.187.01-1.657-1.519-2.2,1.683-4.013,2.636-.469,1.182-1.168.485-2.627,4.044-1.645,2.192,1.528,1.651.009,2.2-1.512L33.57,14.96l.457,2.628L35.2,18.764l2.636.482,1.594,4.015-1.589,2.195V27.1l1.577,2.211-1.654,4.014-2.622.456-1.173,1.166-.48,2.647ZM25,35.882h2.852l1.832,1.236,2.124-.883.4-2.2,2.027-2.009,2.2-.382.826-2.108L35.94,27.689V24.862l1.339-1.837-.838-2.106-2.186-.4L32.251,18.5l-.378-2.19-2.122-.88L27.91,16.693l-2.84-.016L23.241,15.4l-2.124.864-.4,2.19-2.024,2-2.2.391L15.6,22.958l1.269,1.835-.015,2.842L15.58,29.455l.875,2.114,2.2.392,2,2.021.393,2.2,2.114.921Z" transform="translate(-13.428 -13.26)" fill="#173647"/>
        </g>
      </g>
      <path id="Subtraction_6" data-name="Subtraction 6" d="M6.91,13.822a6.911,6.911,0,1,1,6.179-10l-.388.2-1.249.645a5.068,5.068,0,1,0-.1,4.689l1.655.815A6.91,6.91,0,0,1,6.91,13.822Z" transform="translate(30.675 22.775)" fill="#173647"/>
      <path id="Path_3790" data-name="Path 3790" d="M18.76,17.692v8.379l6.893-4.189Z" transform="translate(16.915 7.683)" fill="#173647"/>
    </g>
  </g>
</svg>
